# xmcd CD database file
#
# Track frame offsets:
#	150
#	12745
#	25127
#	37244
#	50163
#	61524
#	74326
#	85786
#	98802
#	109702
#	120852
#	132618
#	145125
#	156829
#	169510
#	180743
#	192065
#	203160
#	215169
#	227947
#	239180
#	252819
#	265084
#	276940
#	287943
#	300426
#	312320
#	325377
#	336493
#	348908
#
# Disc length: 4797 seconds
#
# Revision: 0
# Processed by: cddbd v1.5.2PL0 Copyright (c) Steve Scherf et al.
# Submitted via: CDex 1.51
#
DISCID=cc12bb1e
DTITLE=Chet Atkins - The Early Years 1946-1957 [CDA)
DYEAR=1900
DGENRE=Country
TTITLE0=Guitar Blues (Picking The Blues)
TTITLE1=Brown Eyes
TTITLE2=Ain'tcha Tired Of Makin' Me Blue
TTITLE3=I'm Gonna Get Tight
TTITLE4=Canned Heat
TTITLE5=Standing Room Only
TTITLE6=Don't Hand Me That Line
TTITLE7=Bug Dance
TTITLE8=( I Know My Baby Loves Me) In Her Own Particular Way
TTITLE9=The Nashville Jump
TTITLE10=My Guitar Is My Sweetheart
TTITLE11=I'm Pickin' The Blues
TTITLE12=Gone, Gone, Gone
TTITLE13=Barnyard Shuffle
TTITLE14=Save Your Money
TTITLE15=( I May Be Color Blind But) I Know When I'm Blue
TTITLE16=I've Been Working On The Guitar
TTITLE17=Dizzy Strings
TTITLE18=Money, Marbles And Chalk
TTITLE19=Wednesday Night Waltz
TTITLE20=Guitar Waltz
TTITLE21=Tellin' My Troubles To My Old Guitar
TTITLE22=Dance Of The Goldenrod
TTITLE23=Galloping On The Guitar
TTITLE24=Barber Shop Rag
TTITLE25=Centipede Boogie
TTITLE26=Under The Hickory Nut Tree
TTITLE27=I Was Bitten By The Same Bug Twice
TTITLE28=One More Chance
TTITLE29=The Old Buck Dance
EXTD=
EXTT0=
EXTT1=
EXTT2=
EXTT3=
EXTT4=
EXTT5=
EXTT6=
EXTT7=
EXTT8=
EXTT9=
EXTT10=
EXTT11=
EXTT12=
EXTT13=
EXTT14=
EXTT15=
EXTT16=
EXTT17=
EXTT18=
EXTT19=
EXTT20=
EXTT21=
EXTT22=
EXTT23=
EXTT24=
EXTT25=
EXTT26=
EXTT27=
EXTT28=
EXTT29=
PLAYORDER=
